<?xml version="1.0" encoding="UTF-8"?><!--UserId:deb66679-6df6-4c8f-9967-b3ff15474ee2,DocId:909e7250-7d3a-420e-afcd-1162e5e82a0d--><svg style="background: #fff" version="1.1" width="595px" height="842px" viewBox="0 0 595 842" xmlns="http://www.w3.org/2000/svg" xmlns:xlink="http://www.w3.org/1999/xlink" xmlns:cs="svg" xml:space="preserve"><style type="text/css">.ps04{fill-opacity:0.149;stroke-opacity:0.149;fill:#2A5978}.ps03{fill:#000000}.ps02{fill:#2A5978}.ps01{fill:#2A5978}.ps00{fill:none}.ps22{letter-spacing:0;word-spacing:0;font-family:Trebuchet MS;font-size:10px;font-weight:600;}.ps20{letter-spacing:0;word-spacing:0;font-family:Trebuchet MS;font-size:14px;font-weight:600;}.ps25{letter-spacing:0;word-spacing:0;font-family:Trebuchet MS;font-size:34px;font-weight:600;}.ps21{letter-spacing:0;word-spacing:0;font-family:Trebuchet MS;font-size:10px}.ps23{letter-spacing:0;word-spacing:0;font-family:Trebuchet MS;font-size:10px;font-weight:600;}.ps24{letter-spacing:0;word-spacing:0;font-family:Trebuchet MS;font-size:10px}</style><g transform="matrix(1 0 0 -1 0 842)"><g><g transform="matrix(1.342 0 0 1.342 0 0)"><g><g><g transform="matrix(0.744 0 0 -0.744 0 627.282)"><g><g><g class="ps00"><g><g class="ps00"><path d="M34.998 229 L366 229 L366 230 L34.998 230 Z" class="ps01" /></g></g></g><g class="ps00"><g><g class="ps00"><path d="M34.998 694 L366 694 L366 695 L34.998 695 Z" class="ps01" /></g></g></g><g class="ps00"><g><g class="ps00"><g><g class="ps00"><path d="M34.998 839.09 L366 839.09 L366 840.09 L34.998 840.09 Z" class="ps01" /></g></g></g></g></g><g class="ps00"><g><g class="ps00"><path d="M400 212 L560 212 L560 213 L400 213 Z" class="ps01" /></g></g></g><g class="ps00"><g><g class="ps00"><path d="M400 401 L560 401 L560 402 L400 402 Z" class="ps01" /></g></g></g></g></g><g><g><g class="ps00"><g><g class="ps00"><text transform="matrix(1 0 0 1 35 131.5)"><tspan class="ps02 ps20" xml:space="preserve">PROFESSIONAL SUMMARY</tspan></text></g></g></g></g></g><g><g><g class="ps00"><g><g class="ps00"><text transform="matrix(1 0 0 1 35 151.5)"><tspan class="ps03 ps21" xml:space="preserve">Focused Trainee Accountant offering 5 years of accounting experience to</tspan></text></g></g></g><g class="ps00"><g><g class="ps00"><text transform="matrix(1 0 0 1 35 168.5)"><tspan class="ps03 ps21" xml:space="preserve">bring value to an Accounting Assistant role. Eager to leverage</tspan></text></g></g></g><g class="ps00"><g><g class="ps00"><text transform="matrix(1 0 0 1 35 185.5)"><tspan class="ps03 ps21" xml:space="preserve">demonstrated success in AP/AR management and collections. Willing</tspan></text></g></g></g><g class="ps00"><g><g class="ps00"><text transform="matrix(1 0 0 1 35 202.5)"><tspan class="ps03 ps21" xml:space="preserve">and able to go above and beyond to meet team objectives and foster</tspan></text></g></g></g><g class="ps00"><g><g class="ps00"><text transform="matrix(1 0 0 1 35 219.5)"><tspan class="ps03 ps21" xml:space="preserve">company growth.</tspan></text></g></g></g></g></g><g><g><g class="ps00"><g><g class="ps00"><text transform="matrix(1 0 0 1 35 269.5)"><tspan class="ps02 ps20" xml:space="preserve">WORK HISTORY</tspan></text></g></g></g></g></g><g><g><g class="ps00"><g><g class="ps00"><text transform="matrix(1 0 0 1 35 289.5)"><tspan class="ps03 ps22" xml:space="preserve">Trainee Accountant</tspan></text></g></g></g><g class="ps00"><g><g class="ps00"><text transform="matrix(1 0 0 1 122.6 289.5)"><tspan xml:space="preserve" x="0,2.4" class="ps03 ps22">, </tspan></text></g></g></g><g class="ps00"><g><g class="ps00"><text transform="matrix(1 0 0 1 127.375 289.5)"><tspan class="ps03 ps23" xml:space="preserve">01/2018</tspan></text></g></g></g><g class="ps00"><g><g class="ps00"><text transform="matrix(1 0 0 1 162.925 289.5)"><tspan xml:space="preserve" class="ps03 ps23"> to </tspan></text></g></g></g><g class="ps00"><g><g class="ps00"><text transform="matrix(1 0 0 1 177.337 289.5)"><tspan class="ps03 ps23" xml:space="preserve">Current</tspan></text></g></g></g><g class="ps00"><g><g class="ps00"><text transform="matrix(1 0 0 1 35 306.5)"><tspan class="ps03 ps22" xml:space="preserve">McBridge Financial Services</tspan></text></g></g></g><g class="ps00"><g><g class="ps00"><text transform="matrix(1 0 0 1 160.762 306.5)"><tspan xml:space="preserve" x="0,2.37" class="ps03 ps22"> - </tspan></text></g></g></g><g class="ps00"><g><g class="ps00"><text transform="matrix(1 0 0 1 169.587 306.5)"><tspan class="ps03 ps23" xml:space="preserve">Edinburgh</tspan></text></g></g></g><g class="ps00"><g><g class="ps00"><text transform="matrix(1 0 0 1 35 494.5)"><tspan class="ps03 ps22" xml:space="preserve">Junior Financial Assistant</tspan></text></g></g></g><g class="ps00"><g><g class="ps00"><text transform="matrix(1 0 0 1 149.55 494.5)"><tspan xml:space="preserve" x="0,2.4" class="ps03 ps22">, </tspan></text></g></g></g><g class="ps00"><g><g class="ps00"><text transform="matrix(1 0 0 1 154.325 494.5)"><tspan class="ps03 ps23" xml:space="preserve">09/2015</tspan></text></g></g></g><g class="ps00"><g><g class="ps00"><text transform="matrix(1 0 0 1 190.062 494.5)"><tspan xml:space="preserve" class="ps03 ps23"> to </tspan></text></g></g></g><g class="ps00"><g><g class="ps00"><text transform="matrix(1 0 0 1 204.475 494.5)"><tspan class="ps03 ps23" xml:space="preserve">12/2017</tspan></text></g></g></g><g class="ps00"><g><g class="ps00"><text transform="matrix(1 0 0 1 35 511.5)"><tspan class="ps03 ps22" xml:space="preserve">Smith and Jones Finance</tspan></text></g></g></g><g class="ps00"><g><g class="ps00"><text transform="matrix(1 0 0 1 145.687 511.5)"><tspan xml:space="preserve" x="0,2.37" class="ps03 ps22"> - </tspan></text></g></g></g><g class="ps00"><g><g class="ps00"><text transform="matrix(1 0 0 1 154.512 511.5)"><tspan class="ps03 ps23" xml:space="preserve">Edinburgh</tspan></text></g></g></g></g></g><g><g><g class="ps00"><g><g class="ps00"><text transform="matrix(1 0 0 1 35 734.5)"><tspan class="ps02 ps20" xml:space="preserve">EDUCATION</tspan></text></g></g></g></g></g><g><g><g class="ps00"><g><g class="ps00"><text transform="matrix(1 0 0 1 35 754.5)"><tspan class="ps03 ps23" xml:space="preserve">Bachelor of Science</tspan></text></g></g></g><g class="ps00"><g><g class="ps00"><text transform="matrix(1 0 0 1 124.212 754.5)"><tspan xml:space="preserve" x="0,2.4" class="ps03 ps21">, </tspan></text></g></g></g><g class="ps00"><g><g class="ps00"><text transform="matrix(1 0 0 1 129.262 754.5)"><tspan class="ps03 ps23" xml:space="preserve">Business Operations</tspan></text></g></g></g><g class="ps00"><g><g class="ps00"><text transform="matrix(1 0 0 1 222.387 754.5)"><tspan xml:space="preserve" x="0,2.4" class="ps03 ps21">, </tspan></text></g></g></g><g class="ps00"><g><g class="ps00"><text transform="matrix(1 0 0 1 227.437 754.5)"><tspan class="ps03 ps23" xml:space="preserve">06/2015</tspan></text></g></g></g><g class="ps00"><g><g class="ps00"><text transform="matrix(1 0 0 1 35 771.5)"><tspan class="ps03 ps22" xml:space="preserve">University of Edinburgh</tspan></text></g></g></g><g class="ps00"><g><g class="ps00"><text transform="matrix(1 0 0 1 144.55 771.5)"><tspan class="ps03 ps21" xml:space="preserve">- </tspan></text></g></g></g><g class="ps00"><g><g class="ps00"><text transform="matrix(1 0 0 1 151.225 771.5)"><tspan class="ps03 ps24" xml:space="preserve">Edinburgh</tspan></text></g></g></g><g class="ps00"><g><g class="ps00"><text transform="matrix(1 0 0 1 35 803.5)"><tspan class="ps03 ps23" xml:space="preserve">A-Levels</tspan></text></g></g></g><g class="ps00"><g><g class="ps00"><text transform="matrix(1 0 0 1 73.187 803.5)"><tspan xml:space="preserve" x="0,2.4" class="ps03 ps21">, </tspan></text></g></g></g><g class="ps00"><g><g class="ps00"><text transform="matrix(1 0 0 1 78.237 803.5)"><tspan class="ps03 ps23" xml:space="preserve">Business, Economics, History</tspan></text></g></g></g><g class="ps00"><g><g class="ps00"><text transform="matrix(1 0 0 1 209.012 803.5)"><tspan xml:space="preserve" x="0,2.4" class="ps03 ps21">, </tspan></text></g></g></g><g class="ps00"><g><g class="ps00"><text transform="matrix(1 0 0 1 214.062 803.5)"><tspan class="ps03 ps23" xml:space="preserve">08/2012</tspan></text></g></g></g></g></g><g><g><g class="ps00"><g><g class="ps00"><text transform="matrix(1 0 0 1 400 131.5)"><tspan class="ps02 ps20" xml:space="preserve">CONTACT</tspan></text></g></g></g></g></g><g><g><g class="ps00"><g><g class="ps00"><text transform="matrix(1 0 0 1 400 151.5)"><tspan class="ps03 ps22" xml:space="preserve">Address</tspan></text></g></g></g><g class="ps00"><g><g class="ps00"><text transform="matrix(1 0 0 1 436.725 151.5)"><tspan xml:space="preserve" x="0,2.4" class="ps03 ps22">: </tspan></text></g></g></g><g class="ps00"><g><g class="ps00"><text transform="matrix(1 0 0 1 441.5 151.5)"><tspan class="ps03 ps21" xml:space="preserve">6 Victory Way</tspan></text></g></g></g><g class="ps00"><g><g class="ps00"><text transform="matrix(1 0 0 1 501.149 151.5)"><tspan xml:space="preserve" x="0,2.4" class="ps03 ps21">, </tspan></text></g></g></g><g class="ps00"><g><g class="ps00"><text transform="matrix(1 0 0 1 506.200 151.5)"><tspan class="ps03 ps21" xml:space="preserve">Edinburgh</tspan></text></g></g></g><g class="ps00"><g><g class="ps00"><text transform="matrix(1 0 0 1 400 168.5)"><tspan class="ps03 ps21" xml:space="preserve">EH2 09UH</tspan></text></g></g></g><g class="ps00"><g><g class="ps00"><text transform="matrix(1 0 0 1 400 185.5)"><tspan class="ps03 ps22" xml:space="preserve">Phone</tspan></text></g></g></g><g class="ps00"><g><g class="ps00"><text transform="matrix(1 0 0 1 428.712 185.5)"><tspan xml:space="preserve" x="0,2.4" class="ps03 ps22">: </tspan></text></g></g></g><g class="ps00"><g><g class="ps00"><text transform="matrix(1 0 0 1 433.487 185.5)"><tspan class="ps03 ps21" xml:space="preserve">079123456789</tspan></text></g></g></g><g class="ps00"><g><g class="ps00"><text transform="matrix(1 0 0 1 400 202.5)"><tspan class="ps03 ps22" xml:space="preserve">Email</tspan></text></g></g></g><g class="ps00"><g><g class="ps00"><text transform="matrix(1 0 0 1 424.987 202.5)"><tspan xml:space="preserve" x="0,2.4" class="ps03 ps22">: </tspan></text></g></g></g><g class="ps00"><g><g class="ps00"><text transform="matrix(1 0 0 1 429.762 202.5)"><tspan class="ps03 ps21" xml:space="preserve">brown.j@example.co.uk</tspan></text></g></g></g></g></g><g><g><g class="ps00"><g><g class="ps00"><text transform="matrix(1 0 0 1 400 252.5)"><tspan class="ps02 ps20" xml:space="preserve">SKILLS</tspan></text></g></g></g></g></g><g><g><g class="ps00"><g><g class="ps00"><path d="M34.998 91.001 L560 91.001 L560 92.003 L34.998 92.003 Z" class="ps01" /></g></g></g><g class="ps00"><g><g class="ps00"><text transform="matrix(1 0 0 1 35 75)"><tspan class="ps02 ps25" xml:space="preserve">JAMES</tspan></text></g></g></g><g class="ps00"><g><g class="ps00"><text transform="matrix(1 0 0 1 143.649 75)"><tspan class="ps02 ps25" xml:space="preserve">BROWN</tspan></text></g></g></g></g></g><g><g><g class="ps00"><path d="M34.998 0 L560 0 L560 34.998 L34.998 34.998 Z" class="ps04" /></g></g></g><g><g><g class="ps00"><path d="M212.14 119 L543.14 119 L543.14 131.5 L212.14 131.5 Z" class="ps04" /></g></g></g><g><g><g class="ps00"><path d="M142.74 257 L473.74 257 L473.74 269.5 L142.74 269.5 Z" class="ps04" /></g></g></g><g><g><g class="ps00"><g><g class="ps00"><text transform="matrix(1 0 0 1 43 326.5)"><tspan class="ps03 ps21" xml:space="preserve">Reconciled all company accounts, including credit cards, employee</tspan></text></g></g></g><g class="ps00"><g><g class="ps00"><text transform="matrix(1 0 0 1 43 343.5)"><tspan class="ps03 ps21" xml:space="preserve">expenses and commissions.</tspan></text></g></g></g><g class="ps00"><g><g class="ps00"><text transform="matrix(1 0 0 1 35 326.5)"><tspan class="ps03 ps21">•</tspan></text></g></g></g><g class="ps00"><g><g class="ps00"><text transform="matrix(1 0 0 1 43 360.5)"><tspan class="ps03 ps21" xml:space="preserve">Completed financial reports to inform managers and stakeholders.</tspan></text></g></g></g><g class="ps00"><g><g class="ps00"><text transform="matrix(1 0 0 1 35 360.5)"><tspan class="ps03 ps21">•</tspan></text></g></g></g><g class="ps00"><g><g class="ps00"><text transform="matrix(1 0 0 1 43 377.5)"><tspan class="ps03 ps21" xml:space="preserve">Reviewed GL entries and assessed accuracy.</tspan></text></g></g></g><g class="ps00"><g><g class="ps00"><text transform="matrix(1 0 0 1 35 377.5)"><tspan class="ps03 ps21">•</tspan></text></g></g></g><g class="ps00"><g><g class="ps00"><text transform="matrix(1 0 0 1 43 394.5)"><tspan class="ps03 ps21" xml:space="preserve">Balanced reports to submit for approval and verification.</tspan></text></g></g></g><g class="ps00"><g><g class="ps00"><text transform="matrix(1 0 0 1 35 394.5)"><tspan class="ps03 ps21">•</tspan></text></g></g></g><g class="ps00"><g><g class="ps00"><text transform="matrix(1 0 0 1 43 411.5)"><tspan class="ps03 ps21" xml:space="preserve">Maintained accurate and complete documentation for all financial</tspan></text></g></g></g><g class="ps00"><g><g class="ps00"><text transform="matrix(1 0 0 1 43 428.5)"><tspan class="ps03 ps21" xml:space="preserve">department procedures.</tspan></text></g></g></g><g class="ps00"><g><g class="ps00"><text transform="matrix(1 0 0 1 35 411.5)"><tspan class="ps03 ps21">•</tspan></text></g></g></g><g class="ps00"><g><g class="ps00"><text transform="matrix(1 0 0 1 43 445.5)"><tspan class="ps03 ps21" xml:space="preserve">Monitored status of accounts receivable and payable to facilitate</tspan></text></g></g></g><g class="ps00"><g><g class="ps00"><text transform="matrix(1 0 0 1 43 462.5)"><tspan class="ps03 ps21" xml:space="preserve">efficient processing.</tspan></text></g></g></g><g class="ps00"><g><g class="ps00"><text transform="matrix(1 0 0 1 35 445.5)"><tspan class="ps03 ps21">•</tspan></text></g></g></g><g class="ps00"><g><g class="ps00"><text transform="matrix(1 0 0 1 43 531.5)"><tspan class="ps03 ps21" xml:space="preserve">Supported Finance Officer in improving operations and resolving</tspan></text></g></g></g><g class="ps00"><g><g class="ps00"><text transform="matrix(1 0 0 1 43 548.5)"><tspan class="ps03 ps21" xml:space="preserve">issues to deliver top-notch customer service.</tspan></text></g></g></g><g class="ps00"><g><g class="ps00"><text transform="matrix(1 0 0 1 35 531.5)"><tspan class="ps03 ps21">•</tspan></text></g></g></g><g class="ps00"><g><g class="ps00"><text transform="matrix(1 0 0 1 43 565.5)"><tspan class="ps03 ps21" xml:space="preserve">Researched and updated all required materials needed for firm and</tspan></text></g></g></g><g class="ps00"><g><g class="ps00"><text transform="matrix(1 0 0 1 43 582.5)"><tspan class="ps03 ps21" xml:space="preserve">partners.</tspan></text></g></g></g><g class="ps00"><g><g class="ps00"><text transform="matrix(1 0 0 1 35 565.5)"><tspan class="ps03 ps21">•</tspan></text></g></g></g><g class="ps00"><g><g class="ps00"><text transform="matrix(1 0 0 1 43 599.5)"><tspan class="ps03 ps21" xml:space="preserve">Performed initial client assessment and analysis to begin research</tspan></text></g></g></g><g class="ps00"><g><g class="ps00"><text transform="matrix(1 0 0 1 43 616.5)"><tspan class="ps03 ps21" xml:space="preserve">process.</tspan></text></g></g></g><g class="ps00"><g><g class="ps00"><text transform="matrix(1 0 0 1 35 599.5)"><tspan class="ps03 ps21">•</tspan></text></g></g></g><g class="ps00"><g><g class="ps00"><text transform="matrix(1 0 0 1 43 633.5)"><tspan class="ps03 ps21" xml:space="preserve">Maintained smooth operations of accounts through effective and</tspan></text></g></g></g><g class="ps00"><g><g class="ps00"><text transform="matrix(1 0 0 1 43 650.5)"><tspan class="ps03 ps21" xml:space="preserve">efficient monitoring.</tspan></text></g></g></g><g class="ps00"><g><g class="ps00"><text transform="matrix(1 0 0 1 35 633.5)"><tspan class="ps03 ps21">•</tspan></text></g></g></g><g class="ps00"><g><g class="ps00"><text transform="matrix(1 0 0 1 43 667.5)"><tspan class="ps03 ps21" xml:space="preserve">Ensured adherence to FCA regulations for continued company</tspan></text></g></g></g><g class="ps00"><g><g class="ps00"><text transform="matrix(1 0 0 1 43 684.5)"><tspan class="ps03 ps21" xml:space="preserve">compliance.</tspan></text></g></g></g><g class="ps00"><g><g class="ps00"><text transform="matrix(1 0 0 1 35 667.5)"><tspan class="ps03 ps21">•</tspan></text></g></g></g></g></g><g><g><g class="ps00"><path d="M116.33 722 L447.33 722 L447.33 734.5 L116.33 734.5 Z" class="ps04" /></g></g></g><g><g><g class="ps00"><path d="M465.7 119 L625.7 119 L625.7 131.5 L465.7 131.5 Z" class="ps04" /></g></g></g><g><g><g class="ps00"><path d="M451.19 240 L611.19 240 L611.19 252.5 L451.19 252.5 Z" class="ps04" /></g></g></g><g><g><g class="ps00"><g><g class="ps00"><text transform="matrix(1 0 0 1 408 272.5)"><tspan class="ps03 ps21" xml:space="preserve">Invoicing and collections</tspan></text></g></g></g><g class="ps00"><g><g class="ps00"><text transform="matrix(1 0 0 1 400 272.5)"><tspan class="ps03 ps21">•</tspan></text></g></g></g><g class="ps00"><g><g class="ps00"><text transform="matrix(1 0 0 1 408 289.5)"><tspan class="ps03 ps21" xml:space="preserve">Data processing</tspan></text></g></g></g><g class="ps00"><g><g class="ps00"><text transform="matrix(1 0 0 1 400 289.5)"><tspan class="ps03 ps21">•</tspan></text></g></g></g><g class="ps00"><g><g class="ps00"><text transform="matrix(1 0 0 1 408 306.5)"><tspan class="ps03 ps21" xml:space="preserve">Expense reports</tspan></text></g></g></g><g class="ps00"><g><g class="ps00"><text transform="matrix(1 0 0 1 400 306.5)"><tspan class="ps03 ps21">•</tspan></text></g></g></g><g class="ps00"><g><g class="ps00"><text transform="matrix(1 0 0 1 408 323.5)"><tspan class="ps03 ps21" xml:space="preserve">Account reconciliation</tspan></text></g></g></g><g class="ps00"><g><g class="ps00"><text transform="matrix(1 0 0 1 400 323.5)"><tspan class="ps03 ps21">•</tspan></text></g></g></g><g class="ps00"><g><g class="ps00"><text transform="matrix(1 0 0 1 408 340.5)"><tspan class="ps03 ps21" xml:space="preserve">Accounts payable and receivable</tspan></text></g></g></g><g class="ps00"><g><g class="ps00"><text transform="matrix(1 0 0 1 400 340.5)"><tspan class="ps03 ps21">•</tspan></text></g></g></g><g class="ps00"><g><g class="ps00"><text transform="matrix(1 0 0 1 408 357.5)"><tspan class="ps03 ps21" xml:space="preserve">Payroll processing</tspan></text></g></g></g><g class="ps00"><g><g class="ps00"><text transform="matrix(1 0 0 1 400 357.5)"><tspan class="ps03 ps21">•</tspan></text></g></g></g><g class="ps00"><g><g class="ps00"><text transform="matrix(1 0 0 1 408 374.5)"><tspan class="ps03 ps21" xml:space="preserve">Month-end reports</tspan></text></g></g></g><g class="ps00"><g><g class="ps00"><text transform="matrix(1 0 0 1 400 374.5)"><tspan class="ps03 ps21">•</tspan></text></g></g></g><g class="ps00"><g><g class="ps00"><text transform="matrix(1 0 0 1 408 391.5)"><tspan class="ps03 ps21" xml:space="preserve">Budgets and forecasting</tspan></text></g></g></g><g class="ps00"><g><g class="ps00"><text transform="matrix(1 0 0 1 400 391.5)"><tspan class="ps03 ps21">•</tspan></text></g></g></g></g></g></g></g></g></g></g></g></svg>