<svg width="30" height="30" viewBox="0 0 30 30" fill="none" xmlns="http://www.w3.org/2000/svg">
<path d="M2.4845 3.01374L22.0171 0.0395445C22.4051 -0.0196394 22.8028 -0.0123285 23.1875 0.0610595C23.5722 0.134447 23.9363 0.272474 24.2591 0.467255C24.5819 0.662035 24.8571 0.909751 25.0688 1.19625C25.2806 1.48275 25.4248 1.80242 25.4933 2.137L29.9546 23.9908C30.0924 24.6661 29.9135 25.3609 29.4574 25.9225C29.0013 26.4841 28.3052 26.8665 27.5222 26.9857L7.98963 29.9599C7.81539 29.9867 7.63874 30.0001 7.46176 30C6.75578 30.0003 6.07229 29.7858 5.53163 29.3944C4.99097 29.0029 4.62778 28.4595 4.506 27.8599L0.0446128 6.00603C-0.0230778 5.67141 -0.0136593 5.32856 0.0723284 4.99707C0.158316 4.66558 0.319187 4.35195 0.545759 4.07408C0.772331 3.79621 1.06016 3.55955 1.39282 3.37762C1.72547 3.19568 2.09643 3.07203 2.4845 3.01374ZM7.95514 26.8124L26.3061 24.018L22.0516 3.18443L3.7007 5.97888L7.95514 26.8124ZM20.417 7.11036C20.334 6.7052 20.0678 6.34505 19.6769 6.1091C19.286 5.87315 18.8024 5.78073 18.3325 5.85215L8.25506 7.38709C7.80439 7.44668 7.39675 7.65156 7.1145 7.96033C6.83226 8.2691 6.69646 8.65875 6.73455 9.05053C6.77263 9.44232 6.98176 9.80703 7.31967 10.071C7.65759 10.3349 8.0991 10.4784 8.55499 10.4725C8.66053 10.4723 8.76587 10.4645 8.86991 10.4492L18.9579 8.90781C19.4278 8.83622 19.8454 8.60666 20.119 8.26959C20.3927 7.93253 20.4998 7.51556 20.417 7.11036ZM21.4518 12.204C21.4107 12.0032 21.3241 11.8114 21.197 11.6396C21.0699 11.4677 20.9048 11.319 20.7111 11.2022C20.5174 11.0854 20.2989 11.0026 20.068 10.9586C19.8372 10.9146 19.5986 10.9102 19.3658 10.9458L9.2853 12.482C8.84283 12.5507 8.44621 12.7598 8.17352 13.068C7.90083 13.3762 7.77181 13.7613 7.81187 14.1475C7.85193 14.5336 8.05816 14.8928 8.38997 15.1544C8.72178 15.416 9.15513 15.561 9.60472 15.5609C9.71027 15.5608 9.81562 15.5531 9.91965 15.5377L19.9986 14.0014C20.4674 13.9286 20.8836 13.6986 21.156 13.3617C21.4283 13.0247 21.5347 12.6084 21.4518 12.204ZM22.5015 17.2976C22.4185 16.8924 22.1523 16.5323 21.7614 16.2964C21.3705 16.0604 20.8869 15.968 20.417 16.0394L15.3723 16.8088C14.9288 16.8758 14.5305 17.0838 14.2561 17.3916C13.9816 17.6994 13.851 18.0848 13.89 18.4716C13.929 18.8585 14.1347 19.2186 14.4666 19.481C14.7985 19.7434 15.2324 19.889 15.6827 19.889C15.7883 19.8891 15.8937 19.8809 15.9976 19.8645L21.0379 19.0976C21.2712 19.0627 21.4943 18.9883 21.6942 18.8788C21.8942 18.7693 22.0671 18.6269 22.2031 18.4597C22.3391 18.2924 22.4354 18.1037 22.4866 17.9043C22.5379 17.7049 22.5429 17.4987 22.5015 17.2976Z" fill="#6A11CB"/>
</svg>
