<svg width="44" height="46" viewBox="0 0 44 46" fill="none" xmlns="http://www.w3.org/2000/svg">
<path d="M43.1639 33.6582L43.1732 33.6532H43.1551L32.5288 27.8952L21.8849 22.1271L11.2405 27.8952L0.614274 33.6532H0.596191L0.605443 33.6582L0.596191 33.6633H0.614274L11.2405 39.4213L21.8849 45.1894L32.5288 39.4213L43.1551 33.6633H43.1732L43.1639 33.6582Z" fill="#C3D9FF"/>
<path d="M43.1639 11.543L43.1732 11.5383H43.1551L32.5288 5.77992L21.8849 0.0118103L11.2405 5.77992L0.614274 11.5383H0.596191L0.605443 11.543L0.596191 11.548H0.614274L11.2405 17.3064L21.8849 23.0745L32.5288 17.3064L43.1551 11.548H43.1732L43.1639 11.543Z" fill="#77A6F7"/>
<path d="M0.614258 11.0743V34.127L21.8849 22.6009L0.614258 11.0743Z" fill="#A5C6FF"/>
<path d="M43.155 11.0743V34.127L21.8848 22.6009L43.155 11.0743Z" fill="#A5C6FF"/>
</svg>
