<svg width="633" height="515" viewBox="0 0 633 515" fill="none" xmlns="http://www.w3.org/2000/svg">
<g clip-path="url(#clip0_573_804)">
<path d="M343.998 432.535L361.599 427.349L356.464 445L361.599 462.601L343.998 457.465L326.347 462.601L331.533 445L326.347 427.349L343.998 432.535Z" fill="black" stroke="white" stroke-miterlimit="10"/>
</g>
<g clip-path="url(#clip1_573_804)">
<path d="M157.947 345.509L189.423 362.659L157.947 379.947L140.728 411.354L123.509 379.947L92.0332 362.659L123.509 345.509L140.728 313.964L157.947 345.509Z" fill="black" stroke="white" stroke-miterlimit="10"/>
</g>
<path d="M597.58 389.333C595.68 392.777 592.142 395.268 587.046 396.813C581.949 398.359 575.337 398.943 567.375 398.6C551.455 397.913 530.253 393.524 505.239 385.868C455.218 370.558 390.056 342.216 321.617 304.465C253.178 266.715 194.445 226.717 154.812 192.575C134.992 175.501 119.97 159.909 110.897 146.81C106.359 140.259 103.326 134.355 101.914 129.218C100.503 124.084 100.723 119.762 102.622 116.319C104.522 112.875 108.06 110.384 113.155 108.839C118.253 107.293 124.865 106.709 132.826 107.052C148.747 107.739 169.949 112.128 194.963 119.784C244.983 135.094 310.145 163.436 378.585 201.187C447.024 238.937 505.757 278.934 545.39 313.077C565.209 330.15 580.232 345.742 589.305 358.842C593.843 365.393 596.876 371.297 598.288 376.434C599.699 381.568 599.479 385.889 597.58 389.333Z" stroke="black"/>
<path d="M577.349 426.007C575.45 429.451 571.911 431.942 566.816 433.487C561.718 435.033 555.106 435.617 547.145 435.273C531.224 434.587 510.023 430.198 485.008 422.542C434.988 407.232 369.826 378.89 301.387 341.139C232.947 303.388 174.214 263.391 134.581 229.249C114.762 212.175 99.7398 196.583 90.6662 183.483C86.1288 176.933 83.0955 171.029 81.6836 165.892C80.2724 160.758 80.4921 156.436 82.3917 152.992C84.2913 149.549 87.8296 147.057 92.9249 145.512C98.0227 143.967 104.635 143.383 112.596 143.726C128.517 144.413 149.718 148.802 174.732 156.458C224.753 171.767 289.915 200.11 358.354 237.86C426.794 275.611 485.527 315.608 525.159 349.75C544.979 366.824 560.001 382.416 569.075 395.516C573.612 402.067 576.645 407.971 578.057 413.107C579.468 418.241 579.249 422.563 577.349 426.007Z" stroke="black"/>
<path d="M557.121 462.681C555.221 466.125 551.683 468.616 546.587 470.161C541.49 471.707 534.878 472.291 526.916 471.948C510.996 471.261 489.794 466.872 464.78 459.216C414.759 443.906 349.598 415.564 281.158 377.813C212.719 340.063 153.986 300.066 114.353 265.923C94.5334 248.85 79.5113 233.258 70.4377 220.158C65.9003 213.607 62.8669 207.703 61.4551 202.566C60.0439 197.432 60.2636 193.111 62.1632 189.667C64.0628 186.223 67.601 183.732 72.6964 182.187C77.7942 180.641 84.4062 180.057 92.3675 180.4C108.288 181.087 129.49 185.476 154.504 193.132C204.524 208.442 269.686 236.784 338.126 274.535C406.565 312.285 465.298 352.283 504.931 386.425C524.75 403.499 539.773 419.091 548.846 432.19C553.384 438.741 556.417 444.645 557.829 449.782C559.24 454.916 559.02 459.237 557.121 462.681Z" stroke="black"/>
<circle cx="164.5" cy="104.5" r="15.5" fill="#6A11CB"/>
<circle cx="76.9622" cy="288.5" r="10.5" fill="#6A11CB"/>
<circle cx="454" cy="435" r="10" fill="#6A11CB"/>
<circle cx="114.5" cy="64.5" r="23.5" fill="black"/>
<path d="M338.972 383.59C332.668 385.744 325.463 381.474 322.957 374.071L283.959 259.809L306.747 252.014L345.785 366.433C348.291 373.758 345.237 381.435 338.972 383.59Z" fill="black"/>
<path d="M335.565 385C333.725 385 331.845 384.569 330.044 383.668C326.403 381.866 323.505 378.498 322.096 374.345L283.097 260.084C282.94 259.653 283.175 259.144 283.645 258.987L306.433 251.192C306.668 251.113 306.903 251.113 307.099 251.231C307.295 251.348 307.451 251.505 307.53 251.74L346.568 366.159C349.191 373.914 345.902 382.101 339.206 384.412C338.071 384.804 336.818 385 335.565 385ZM285.055 260.358L323.779 373.797C325.032 377.518 327.616 380.574 330.827 382.14C333.411 383.394 336.191 383.629 338.697 382.767C344.492 380.769 347.312 373.562 344.962 366.707L306.198 253.111L285.055 260.358Z" fill="black"/>
<path d="M302.713 153.382L228.984 205.988L200.283 235.798L189.006 255.736L188.967 255.892C186.735 259.339 188.027 267.291 192.217 275.399C196.328 283.39 202.123 288.953 206.195 289.266L206.078 289.344L227.731 291.695L268.257 285.231L354.281 254.443L461.214 272.775L461.957 272.814C435.097 267.8 398.839 231.88 372.488 181.076C346.175 130.31 337.796 80.132 349.347 55.376H349.308L303.3 152.128L302.713 153.382Z" fill="#6A11CB"/>
<path d="M479.729 270.603C506.156 256.873 501.046 194.629 468.315 131.577C435.583 68.5249 387.626 28.5414 361.198 42.2714C334.771 56.0013 339.881 118.245 372.612 181.297C405.344 244.349 453.301 284.333 479.729 270.603Z" fill="white"/>
<path d="M468.105 274.185C456.594 274.185 442.733 267.761 427.815 255.266C407.493 238.266 387.563 212.06 371.705 181.428C347.703 135.05 337.797 87.4964 346.489 60.2726C349.387 51.1849 354.242 44.8392 360.859 41.4313C374.015 34.6939 392.536 40.4129 413.053 57.5698C433.375 74.57 453.305 100.775 469.163 131.407C493.204 177.786 503.11 225.339 494.379 252.563C491.481 261.651 486.626 267.996 480.009 271.404C476.446 273.284 472.452 274.185 468.105 274.185ZM372.841 40.4129C368.808 40.4129 365.049 41.2355 361.682 42.9982C355.456 46.171 350.914 52.2033 348.173 60.8601C339.598 87.6922 349.465 134.737 373.271 180.723C405.692 243.279 453.226 283.312 479.265 269.955C485.49 266.782 490.032 260.75 492.773 252.093C501.348 225.261 491.481 178.216 467.675 132.23C439.444 77.782 399.819 40.4129 372.841 40.4129Z" fill="black"/>
<path d="M468.105 274.185C456.594 274.185 442.733 267.761 427.814 255.266C407.493 238.265 387.563 212.06 371.705 181.428C347.703 135.05 337.797 87.4963 346.489 60.2725C349.387 51.1848 354.242 44.8391 360.859 41.4312C369.669 36.8874 381.181 38.0234 394.141 44.6824C406.553 51.0673 419.983 62.3877 433.061 77.3902C433.375 77.7427 433.335 78.2911 432.983 78.6045C432.631 78.9179 432.082 78.8787 431.769 78.5262C405.222 48.0511 378.361 34.4196 361.681 42.9981C355.456 46.1709 350.914 52.2033 348.173 60.86C339.598 87.6922 349.465 134.737 373.271 180.723C401.463 235.132 441.127 272.54 468.066 272.54C472.099 272.54 475.858 271.717 479.225 269.955C485.451 266.782 489.993 260.75 492.734 252.093C501.309 225.261 491.442 178.216 467.635 132.23C460.548 118.52 452.561 105.632 443.986 93.9204C443.712 93.5286 443.79 92.9803 444.181 92.7061C444.573 92.4319 445.121 92.5102 445.395 92.9019C454.049 104.692 462.036 117.658 469.202 131.446C493.204 177.785 503.11 225.339 494.378 252.563C491.481 261.65 486.626 267.996 480.008 271.404C476.445 273.284 472.451 274.185 468.105 274.185Z" fill="black"/>
<path d="M419.766 190.339C425.888 187.158 424.711 172.75 417.136 158.159C409.561 143.567 398.457 134.316 392.335 137.497C386.213 140.678 387.39 155.085 394.965 169.677C402.54 184.269 413.644 193.519 419.766 190.339Z" fill="#6A11CB"/>
<path d="M417.087 191.848C410.352 191.848 400.955 183.152 394.181 170.03C388.542 159.14 386.232 147.937 388.308 141.474C389.052 139.202 390.265 137.596 391.949 136.734C398.605 133.326 410 142.61 417.909 157.847C423.547 168.737 425.857 179.94 423.782 186.403C423.038 188.675 421.824 190.281 420.141 191.143C419.201 191.613 418.183 191.848 417.087 191.848ZM395.003 137.714C394.181 137.714 393.398 137.87 392.732 138.223C391.44 138.889 390.5 140.142 389.913 141.983C387.994 148.016 390.226 158.748 395.669 169.246C402.873 183.152 413.719 192.514 419.319 189.615C420.611 188.949 421.55 187.696 422.138 185.855C424.056 179.783 421.785 169.09 416.382 158.592C410.039 146.41 400.955 137.714 395.003 137.714Z" fill="#4CAF4F"/>
<path d="M462.154 259.574C452.052 259.574 439.914 253.934 426.836 243.005C409.06 228.12 391.596 205.166 377.735 178.373C356.709 137.792 348.056 96.153 355.652 72.2978C358.197 64.307 362.465 58.7447 368.299 55.7285C381.69 48.8736 401.385 56.7861 422.372 77.4292C422.725 77.7818 422.725 78.291 422.372 78.6435C422.02 78.9961 421.511 78.9961 421.159 78.6435C400.72 58.5488 381.729 50.7146 369.082 57.2562C363.679 60.0373 359.724 65.2471 357.296 72.8071C349.818 96.2313 358.432 137.361 379.263 177.589C403.891 225.182 438.544 257.851 462.115 257.851C465.639 257.851 468.889 257.107 471.865 255.618C477.268 252.837 481.223 247.627 483.65 240.067C491.129 216.643 482.515 175.513 461.684 135.285C455.38 123.142 448.332 111.743 440.736 101.441C440.462 101.049 440.54 100.501 440.932 100.227C441.324 99.9526 441.872 100.031 442.146 100.423C449.82 110.842 456.907 122.28 463.25 134.501C484.277 175.082 492.93 216.721 485.334 240.576C482.789 248.567 478.521 254.13 472.687 257.146C469.476 258.752 465.952 259.574 462.154 259.574Z" fill="black"/>
<path d="M227.771 292.517C227.732 292.517 227.692 292.517 227.692 292.517L206.04 290.167C205.922 290.167 205.805 290.128 205.687 290.05C201.224 289.344 195.585 283.704 191.474 275.791C187.088 267.448 185.796 259.3 188.185 255.462L188.224 255.344L199.501 235.367C199.54 235.289 199.579 235.249 199.618 235.21L228.319 205.401C228.358 205.362 228.397 205.323 228.436 205.284L301.97 152.794L348.486 54.9845C348.604 54.7886 348.76 54.632 348.995 54.5536C349.23 54.4753 349.465 54.4753 349.661 54.5928C350.092 54.7886 350.288 55.2979 350.092 55.7288C338.306 80.994 347.625 131.211 373.232 180.645C398.879 230.157 434.628 266.821 462.154 271.874C462.585 271.953 462.898 272.344 462.859 272.814C462.82 273.245 462.428 273.559 461.997 273.598L461.253 273.559C461.214 273.559 461.175 273.559 461.136 273.559L354.399 255.266L268.571 285.976C268.531 285.976 268.453 286.015 268.414 286.015L227.888 292.478C227.849 292.517 227.81 292.517 227.771 292.517ZM206.666 288.522L227.771 290.794L268.101 284.331L354.086 253.581C354.242 253.542 354.36 253.503 354.516 253.542L450.603 269.994C424.643 258.595 394.298 224.947 371.784 181.468C349.426 138.301 339.441 94.4689 344.923 66.775L303.497 153.735C303.419 153.852 303.34 153.97 303.223 154.048L229.572 206.655L200.989 236.307L189.712 256.284C189.712 256.323 189.673 256.363 189.673 256.363C187.637 259.535 189.007 267.37 192.962 275.008C196.838 282.49 202.437 288.13 206.275 288.404C206.431 288.404 206.549 288.444 206.666 288.522Z" fill="black"/>
<path d="M302.83 153.069L349.307 55.3369H349.346C337.795 80.093 346.214 130.271 372.487 181.037C398.838 231.881 435.096 267.8 462.035 272.736L461.291 272.697L354.515 254.404L352.048 253.973C339.636 251.779 323.073 235.641 311.209 212.608C299.032 188.988 296.878 165.447 302.282 154.244L302.83 153.069Z" fill="white"/>
<path d="M462.035 273.598C461.996 273.598 462.035 273.598 462.035 273.598L461.252 273.558C461.213 273.558 461.174 273.558 461.135 273.558L354.358 255.266L351.892 254.835C338.775 252.524 322.134 235.719 310.426 213.039C297.153 187.265 296.487 164.311 301.499 153.891L302.086 152.716L348.563 55.0236C348.681 54.8277 348.837 54.671 349.072 54.5927C349.307 54.5143 349.542 54.5143 349.738 54.6319C350.169 54.8277 350.365 55.3369 350.169 55.7678C338.383 81.0331 347.702 131.25 373.31 180.684C398.956 230.196 434.705 266.86 462.231 271.913C462.662 271.992 462.975 272.383 462.936 272.853C462.818 273.245 462.466 273.598 462.035 273.598ZM344.844 66.7749L303.613 153.46L303.026 154.635C298.053 164.977 299.502 188.087 311.953 212.217C323.426 234.466 339.597 250.918 352.205 253.111L354.672 253.542L450.563 269.994C424.603 258.595 394.258 224.947 371.743 181.467C349.386 138.301 339.401 94.4687 344.844 66.7749Z" fill="black"/>
<path d="M226.596 292.4C226.556 292.4 226.517 292.4 226.517 292.4L206 290.206C205.882 290.206 205.765 290.167 205.648 290.089C201.184 289.383 195.546 283.743 191.434 275.83C187.088 267.448 185.796 259.3 188.184 255.461L188.223 255.344L199.5 235.367C199.735 234.936 200.244 234.818 200.675 235.053C201.106 235.288 201.223 235.798 200.988 236.228L189.711 256.284C189.711 256.323 189.672 256.362 189.672 256.362C187.636 259.535 189.007 267.369 192.961 275.008C196.838 282.489 202.437 288.13 206.274 288.404C206.392 288.404 206.548 288.443 206.626 288.522L226.674 290.676C227.144 290.715 227.496 291.146 227.418 291.616C227.379 292.047 227.026 292.4 226.596 292.4Z" fill="black"/>
<path d="M227.966 291.538C221.309 291.068 211.99 281.628 205.217 268.584C198.051 254.757 196.367 240.459 200.753 235.367L189.045 255.736L188.967 255.893C186.735 259.34 188.027 267.291 192.217 275.4C196.328 283.391 202.123 288.953 206.195 289.266L206.078 289.345L227.966 291.538Z" fill="white"/>
<path d="M227.966 292.4C227.927 292.4 227.927 292.4 227.888 292.4C227.731 292.4 227.535 292.361 227.379 292.361L206 290.206C205.882 290.206 205.765 290.167 205.648 290.089C201.184 289.384 195.546 283.743 191.434 275.83C187.088 267.448 185.796 259.3 188.184 255.462L188.223 255.344L198.521 237.404C198.913 236.385 199.422 235.484 200.048 234.74C200.322 234.388 200.831 234.348 201.184 234.583C201.536 234.858 201.654 235.328 201.419 235.719L199.97 238.187C197.66 244.415 199.931 256.637 205.882 268.075C212.343 280.57 221.153 289.697 227.457 290.52L227.927 290.559C228.397 290.598 228.749 291.029 228.71 291.499C228.749 292.047 228.397 292.4 227.966 292.4ZM206.626 288.522L221.584 290.05C215.828 286.367 209.485 278.768 204.434 268.976C199.539 259.535 197.112 249.743 197.503 242.692L189.711 256.284C189.711 256.323 189.672 256.363 189.672 256.363C187.636 259.535 189.007 267.37 192.961 275.008C196.838 282.49 202.437 288.13 206.274 288.404C206.392 288.404 206.548 288.444 206.626 288.522Z" fill="black"/>
<path d="M266.807 285.388L268.53 285.035C259.211 286.994 244.489 272.892 234.113 252.876C223.502 232.429 221.505 212.021 229.023 205.988L228.044 206.968L200.831 235.249C196.367 240.263 198.012 254.639 205.216 268.544C212.147 281.941 221.975 291.499 228.67 291.459L266.807 285.388Z" fill="black"/>
<path d="M228.632 292.36C221.506 292.36 211.599 282.764 204.434 268.975C197.151 254.874 195.311 240.146 200.166 234.701L226.87 206.968C227.34 206.341 227.888 205.793 228.475 205.323C228.828 205.048 229.337 205.088 229.65 205.401C229.963 205.753 229.963 206.263 229.65 206.576L228.123 208.182C222.68 215.468 225.382 234.113 234.897 252.484C245.155 272.305 259.486 285.897 268.257 284.252L268.374 284.213C268.844 284.135 269.275 284.409 269.392 284.879C269.471 285.349 269.197 285.78 268.727 285.897C268.688 285.897 268.648 285.897 268.609 285.936L267.004 286.25H266.965L228.828 292.321C228.749 292.321 228.671 292.36 228.632 292.36ZM224.599 211.825L201.458 235.876C197.151 240.733 199.109 254.913 206 268.192C212.735 281.197 222.25 290.598 228.632 290.637L262.305 285.27C253.221 282.058 242.023 269.955 233.37 253.307C225.147 237.443 221.975 221.304 224.599 211.825Z" fill="black"/>
<path d="M392.341 137.479C386.193 140.612 387.094 155.145 394.925 169.638C408.042 193.885 418.496 191.025 419.71 190.594C419.749 190.594 419.749 190.634 419.71 190.634L397.196 208.77C390.579 199.486 384.275 189.145 378.48 177.981C372.959 167.288 368.299 156.633 364.619 146.292L392.341 137.479Z" fill="black"/>
<path d="M397.196 209.631C397.156 209.631 397.117 209.631 397.078 209.631C396.843 209.592 396.647 209.475 396.491 209.279C389.717 199.76 383.413 189.341 377.735 178.412C372.293 167.914 367.594 157.221 363.835 146.645C363.757 146.41 363.757 146.174 363.874 145.979C363.992 145.783 364.149 145.626 364.384 145.548L392.105 136.734C392.536 136.617 393.006 136.813 393.163 137.243C393.319 137.674 393.163 138.144 392.771 138.34C391.44 139.006 390.461 140.338 389.874 142.297C387.955 148.446 390.304 159.336 395.747 169.325C408.551 192.984 418.418 190.281 419.475 189.889C419.866 189.733 420.336 189.928 420.532 190.281C420.728 190.634 420.65 191.143 420.336 191.417L397.744 209.436C397.587 209.553 397.391 209.631 397.196 209.631ZM365.754 146.84C369.474 157.064 374.016 167.405 379.263 177.59C384.744 188.166 390.852 198.233 397.391 207.516L416.93 191.77C412.466 191.574 404.048 188.244 394.181 170.03C388.464 159.493 386.115 148.368 388.19 141.67C388.464 140.808 388.777 140.064 389.169 139.359L365.754 146.84Z" fill="black"/>
<path d="M508.186 81.5974C526.086 72.1937 533.009 50.1159 523.65 32.2852C514.29 14.4545 492.191 7.62311 474.291 17.0268C456.391 26.4305 449.468 48.5083 458.828 66.339C468.187 84.1697 490.286 91.0011 508.186 81.5974Z" fill="black"/>
<path d="M474.567 41.2352C476.29 38.8849 478.835 37.4356 481.732 37.1223C483.925 36.8872 485.961 37.3573 487.879 38.5324C488.858 39.12 489.72 39.8642 490.542 40.7652C491.129 39.7075 491.834 38.7674 492.656 37.984C494.262 36.4172 496.18 35.5162 498.334 35.2812C501.231 34.9678 504.051 35.8296 506.243 37.749C508.397 39.6292 509.767 42.3712 510.12 45.4657C510.472 48.6385 509.611 51.6939 507.418 55.0626C505.46 58.0787 502.484 61.2124 499.039 64.8945C497.864 66.1479 496.533 67.5581 495.162 69.0466C494.81 69.4383 494.301 69.7125 493.753 69.7517C493.205 69.83 492.696 69.6733 492.226 69.36C490.542 68.1848 488.937 67.0881 487.527 66.1479C483.377 63.3276 479.774 60.899 477.19 58.3921C474.293 55.611 472.805 52.7906 472.452 49.6178C472.139 46.5233 472.883 43.5463 474.567 41.2352Z" fill="white"/>
<path d="M608.645 84.2109C621.749 71.1013 621.749 49.8465 608.645 36.7369C595.54 23.6273 574.294 23.6273 561.19 36.7369C548.085 49.8465 548.085 71.1013 561.19 84.2109C574.294 97.3205 595.54 97.3205 608.645 84.2109Z" fill="#6A11CB"/>
<path d="M584.911 94.8916C565.96 94.8916 550.493 79.4583 550.493 60.4603C550.493 41.5016 565.921 26.0291 584.911 26.0291C603.901 26.0291 619.328 41.4624 619.328 60.4603C619.328 79.4191 603.901 94.8916 584.911 94.8916ZM584.911 27.7526C566.899 27.7526 552.216 42.4025 552.216 60.4603C552.216 78.479 566.86 93.1681 584.911 93.1681C602.922 93.1681 617.605 78.5182 617.605 60.4603C617.605 42.4417 602.961 27.7526 584.911 27.7526Z" fill="black"/>
<path d="M595.085 63.1713C593.205 63.1713 591.561 64.0723 590.464 65.4824L579.148 61.0561C579.148 60.8994 579.187 60.7819 579.187 60.6252C579.187 60.351 579.148 60.0768 579.109 59.8026L590.699 54.4362C591.756 55.6505 593.323 56.4339 595.085 56.4731C598.295 56.4731 600.958 53.8486 600.958 50.5974C600.958 47.3462 598.334 44.6826 595.085 44.6826C591.874 44.6826 589.211 47.3071 589.211 50.5583C589.211 50.8325 589.25 51.1067 589.29 51.3809L577.7 56.7473C576.642 55.533 575.076 54.7496 573.314 54.7104C570.103 54.7104 567.441 57.3348 567.441 60.586C567.441 63.8372 570.064 66.5009 573.314 66.5009C575.194 66.5009 576.838 65.5999 577.935 64.1898L589.25 68.6161C589.25 68.7728 589.211 68.8903 589.211 69.047C589.211 72.2982 591.835 74.9618 595.085 74.9618C598.295 74.9618 600.958 72.3373 600.958 69.0861C600.919 65.8349 598.295 63.2105 595.085 63.1713Z" fill="black"/>
<path d="M595.529 189.993C610.896 179.322 614.756 158.283 604.152 142.999C593.548 127.715 572.494 123.975 557.128 134.645C541.761 145.315 537.9 166.355 548.505 181.639C559.109 196.923 580.162 200.663 595.529 189.993Z" fill="black"/>
<path d="M567.874 178.373L562.94 151.619C562.705 150.248 563.958 149.112 565.289 149.465L594.46 157.73C595.948 158.161 596.3 160.08 595.087 161.02L570.81 179.509C569.753 180.371 568.148 179.783 567.874 178.373Z" fill="white"/>
<path d="M575.998 299.581C594.974 290.34 602.914 267.553 593.733 248.686C584.552 229.819 561.726 222.016 542.749 231.257C523.773 240.499 515.833 263.286 525.014 282.153C534.195 301.02 557.021 308.823 575.998 299.581Z" fill="#6A11CB"/>
<path d="M559.18 304.347C555.108 304.347 550.957 303.72 546.924 302.349C537.057 299.059 529.07 292.165 524.449 282.842C519.829 273.558 519.124 263.021 522.452 253.15C529.344 232.821 551.506 221.735 571.905 228.512C581.773 231.802 589.76 238.696 594.381 248.019C599.001 257.302 599.706 267.839 596.377 277.71C590.817 294.006 575.508 304.347 559.18 304.347ZM559.572 228.277C543.949 228.277 529.305 238.148 524.019 253.738C520.847 263.178 521.513 273.245 525.937 282.098C530.362 290.989 537.997 297.609 547.433 300.743C566.933 307.206 588.116 296.63 594.694 277.201C597.865 267.761 597.2 257.694 592.775 248.841C588.351 239.95 580.715 233.33 571.279 230.196C567.403 228.864 563.448 228.277 559.572 228.277Z" fill="black"/>
<path d="M578.837 259.261C578.446 268.78 562.353 291.029 558.516 296.238C558.124 296.787 557.302 296.748 556.95 296.16C554.522 292.243 546.495 279.082 542.306 268.427C540.622 264.197 539.565 260.358 539.682 257.655C540.113 246.844 549.236 238.422 560.043 238.853C570.85 239.362 579.268 248.45 578.837 259.261Z" fill="black"/>
<path d="M565.592 264.826C569.094 261.323 569.094 255.644 565.592 252.141C562.091 248.638 556.414 248.638 552.912 252.141C549.41 255.644 549.41 261.323 552.912 264.826C556.414 268.329 562.091 268.329 565.592 264.826Z" fill="#6A11CB"/>
<path d="M289.326 63.3034L305.965 71.0388L290.448 80.8963L282.675 97.5023L272.855 82.0188L256.212 74.2131L271.733 64.4259L279.501 47.7495L289.326 63.3034Z" fill="black" stroke="white" stroke-miterlimit="10"/>
<g clip-path="url(#clip2_573_804)">
<path d="M44.3796 160.621L65.3143 172.088L44.4738 183.474L33.1331 204.269L21.6206 183.379L0.685509 171.821L21.5264 160.526L32.8667 139.64L44.3796 160.621Z" fill="black" stroke="white" stroke-miterlimit="10"/>
</g>
<defs>
<clipPath id="clip0_573_804">
<rect width="36" height="36" fill="white" transform="translate(326 427)"/>
</clipPath>
<clipPath id="clip1_573_804">
<rect width="70.3259" height="70.3259" fill="white" transform="translate(140.728 313) rotate(45)"/>
</clipPath>
<clipPath id="clip2_573_804">
<rect width="46.8615" height="46.4767" fill="white" transform="translate(32.864 139) rotate(45)"/>
</clipPath>
</defs>
</svg>
